<svg xmlns="http://www.w3.org/2000/svg" width="420" height="420" viewBox="0 0 420 420" role="img" aria-labelledby="title desc">
  <title id="title">QR de Yape</title>
  <desc id="desc">Imagen temporal para el QR de Yape configurable.</desc>
  <rect width="420" height="420" fill="#fff"/>
  <rect x="20" y="20" width="380" height="380" rx="28" fill="#fbf7ff" stroke="#7c3aed" stroke-width="8"/>
  <g fill="#161616">
    <rect x="58" y="58" width="92" height="92" rx="10"/>
    <rect x="270" y="58" width="92" height="92" rx="10"/>
    <rect x="58" y="270" width="92" height="92" rx="10"/>
    <rect x="78" y="78" width="52" height="52" fill="#fff" rx="6"/>
    <rect x="290" y="78" width="52" height="52" fill="#fff" rx="6"/>
    <rect x="78" y="290" width="52" height="52" fill="#fff" rx="6"/>
    <rect x="180" y="60" width="28" height="28"/>
    <rect x="220" y="60" width="28" height="28"/>
    <rect x="180" y="100" width="68" height="28"/>
    <rect x="180" y="150" width="28" height="68"/>
    <rect x="230" y="150" width="28" height="28"/>
    <rect x="280" y="180" width="28" height="68"/>
    <rect x="330" y="180" width="28" height="28"/>
    <rect x="180" y="250" width="28" height="28"/>
    <rect x="220" y="250" width="68" height="28"/>
    <rect x="320" y="250" width="28" height="28"/>
    <rect x="180" y="300" width="28" height="58"/>
    <rect x="230" y="310" width="28" height="28"/>
    <rect x="280" y="300" width="78" height="28"/>
    <rect x="320" y="348" width="38" height="10"/>
  </g>
  <text x="210" y="220" text-anchor="middle" font-family="Arial, sans-serif" font-size="28" font-weight="700" fill="#7c3aed">Yape</text>
  <text x="210" y="392" text-anchor="middle" font-family="Arial, sans-serif" font-size="16" fill="#57534e">Reemplaza este SVG por tu QR real</text>
</svg>
